<svg width="95" height="95" viewBox="0 0 95 95" fill="none" xmlns="http://www.w3.org/2000/svg">
<rect width="95" height="95" rx="20" fill="black"/>
<path d="M52.8265 41.9324C50.2327 40.4844 46.915 41.3419 45.4206 43.8486L27.1492 74.3646C25.6509 76.8712 26.5421 80.0736 29.1359 81.5216C31.7258 82.9695 35.0435 82.1083 36.5398 79.6054L54.8113 49.0894C55.3055 48.2657 55.539 47.3613 55.539 46.4737C55.539 44.6609 54.57 42.9027 52.8284 41.9324H52.8265ZM49.6392 55.0579L35.0727 79.3252C33.9616 81.1831 31.504 81.8224 29.5796 80.7487C27.6571 79.6749 26.9955 77.2999 28.1066 75.4383L42.6731 51.1711C43.7842 49.3132 46.2418 48.6738 48.1662 49.7475C49.4563 50.4678 50.1782 51.7728 50.1782 53.1173C50.1782 53.7774 50.005 54.4468 49.6392 55.0579Z" fill="white"/>
<g filter="url(#filter0_f_1646_1359)">
<path d="M63.8892 23.2728L63.8863 23.2711C59.4359 20.7893 53.7452 22.2621 51.1758 26.5608L51.1741 26.5636C48.6046 30.8623 50.1294 36.3591 54.5798 38.8409L54.5827 38.8426C59.0331 41.3244 64.7238 39.8516 67.2932 35.5529L67.2949 35.5501C69.8644 31.2513 68.3395 25.7546 63.8892 23.2728Z" fill="url(#paint0_radial_1646_1359)"/>
</g>
<defs>
<filter id="filter0_f_1646_1359" x="48.3258" y="20.4664" width="21.8172" height="21.1824" filterUnits="userSpaceOnUse" color-interpolation-filters="sRGB">
<feFlood flood-opacity="0" result="BackgroundImageFix"/>
<feBlend mode="normal" in="SourceGraphic" in2="BackgroundImageFix" result="shape"/>
<feGaussianBlur stdDeviation="0.8" result="effect1_foregroundBlur_1646_1359"/>
</filter>
<radialGradient id="paint0_radial_1646_1359" cx="0" cy="0" r="1" gradientTransform="matrix(8.00486 -13.8072 14.2944 7.73204 55.3658 38.4483)" gradientUnits="userSpaceOnUse">
<stop stop-color="white"/>
<stop offset="1" stop-color="white" stop-opacity="0"/>
</radialGradient>
</defs>
</svg>
