<svg width="537" height="251" viewBox="0 0 537 251" fill="none" xmlns="http://www.w3.org/2000/svg">
<path d="M492.609 100.635C486.603 97.1595 478.922 99.2175 475.462 105.233L433.157 178.472C429.688 184.488 431.751 192.174 437.757 195.649C443.753 199.124 451.435 197.057 454.899 191.05L497.204 117.811C498.349 115.835 498.889 113.664 498.889 111.534C498.889 107.183 496.646 102.963 492.613 100.635H492.609ZM485.229 132.136L451.502 190.377C448.93 194.836 443.24 196.371 438.784 193.794C434.333 191.217 432.801 185.517 435.373 181.049L469.1 122.807C471.673 118.348 477.363 116.814 481.819 119.391C484.806 121.119 486.477 124.252 486.477 127.478C486.477 129.063 486.076 130.669 485.229 132.136Z" fill="url(#paint0_linear_1645_1300)"/>
<g filter="url(#filter0_f_1645_1300)">
<path d="M518.216 55.8568L518.21 55.8535C509.516 50.8279 498.4 53.8103 493.38 62.5149L493.377 62.5205C488.358 71.2251 491.336 82.3555 500.03 87.3811L500.036 87.3843C508.73 92.4099 519.847 89.4275 524.866 80.723L524.869 80.7173C529.889 72.0128 526.91 60.8823 518.216 55.8568Z" fill="url(#paint1_radial_1645_1300)"/>
</g>
<path d="M266.408 195.823C260.402 192.352 258.348 184.662 261.812 178.646L303.883 105.661C307.347 99.6446 315.024 97.5867 321.03 101.057C327.035 104.528 329.09 112.218 325.625 118.234L283.555 191.22C280.09 197.236 272.413 199.294 266.408 195.823Z" fill="url(#paint2_linear_1645_1300)"/>
<path d="M383.49 115.296C383.49 117.435 382.949 119.597 381.805 121.574L350.038 176.692L341.446 191.31C337.986 197.326 330.305 199.384 324.304 195.918C318.298 192.443 316.235 184.757 319.704 178.741L328.448 163.852L360.062 109.005C363.356 103.287 370.456 101.143 376.308 103.932H376.317C376.317 103.932 376.34 103.941 376.344 103.946C376.543 104.05 376.745 104.158 376.944 104.262C377.038 104.298 377.124 104.347 377.214 104.402C377.322 104.469 377.435 104.523 377.534 104.605C377.556 104.614 377.583 104.627 377.606 104.641C381.39 107.006 383.485 111.103 383.485 115.301L383.49 115.296Z" fill="url(#paint3_linear_1645_1300)"/>
<path d="M440.513 115.296C440.513 117.435 439.973 119.597 438.828 121.574L407.061 176.692L400.79 187.09C397.33 193.106 389.648 195.164 383.647 191.698C377.642 188.223 375.578 180.537 379.047 174.521L385.472 163.852L417.086 109.005C420.379 103.287 427.479 101.143 433.332 103.932H433.341C433.341 103.932 433.363 103.941 433.368 103.946C433.566 104.05 433.769 104.158 433.967 104.262C434.062 104.298 434.147 104.347 434.237 104.402C434.346 104.469 434.458 104.523 434.557 104.605C434.58 104.614 434.607 104.627 434.629 104.641C438.414 107.006 440.509 111.103 440.509 115.301L440.513 115.296Z" fill="url(#paint4_linear_1645_1300)"/>
<path d="M204.246 181.7C204.246 179.561 204.787 177.399 205.931 175.423L237.698 120.304L246.01 105.664C249.47 99.648 257.152 97.59 263.153 101.056C269.159 104.531 271.222 112.217 267.753 118.233L259.287 133.144L227.674 187.992C224.38 193.71 217.28 195.853 211.428 193.064H211.419C211.419 193.064 211.396 193.055 211.392 193.051C211.193 192.947 210.991 192.839 210.792 192.735C210.698 192.699 210.612 192.649 210.522 192.595C210.414 192.527 210.301 192.473 210.202 192.392C210.18 192.383 210.153 192.369 210.13 192.356C206.346 189.991 204.251 185.893 204.251 181.696L204.246 181.7Z" fill="url(#paint5_linear_1645_1300)"/>
<path d="M88.4609 181.702C88.4609 179.562 89.0016 177.401 90.1459 175.424L157.79 57.3885L165.259 44.4315C168.719 38.4155 176.401 36.3576 182.402 39.8236C188.408 43.2987 190.471 50.9845 187.002 57.0004L179.379 70.2283L111.889 187.997C108.595 193.715 101.495 195.859 95.6424 193.07H95.6334C95.6334 193.07 95.6109 193.061 95.6064 193.057C95.4081 192.953 95.2054 192.844 95.0072 192.741C94.9125 192.705 94.8269 192.655 94.7368 192.601C94.6287 192.533 94.5161 192.479 94.417 192.398C94.3944 192.389 94.3674 192.375 94.3449 192.362C90.5604 189.997 88.4654 185.899 88.4654 181.702H88.4609Z" fill="url(#paint6_linear_1645_1300)"/>
<path d="M146.492 181.703C146.492 179.564 147.033 177.402 148.177 175.425L179.944 120.307L188.689 105.08C192.149 99.064 199.831 97.006 205.832 100.472C211.837 103.947 213.901 111.633 210.432 117.649L201.534 133.147L169.92 187.994C166.626 193.712 159.526 195.856 153.674 193.067H153.665C153.665 193.067 153.642 193.058 153.638 193.054C153.439 192.95 153.237 192.841 153.038 192.738C152.944 192.701 152.858 192.652 152.768 192.598C152.66 192.53 152.547 192.476 152.448 192.395C152.426 192.386 152.399 192.372 152.376 192.358C148.592 189.994 146.497 185.896 146.497 181.699L146.492 181.703Z" fill="url(#paint7_linear_1645_1300)"/>
<path d="M191.11 50.187L159.343 105.305C155.428 104.479 151.576 103.026 147.918 100.91C143.962 98.6259 140.565 95.7466 137.758 92.4611C137.736 92.4385 137.713 92.4159 137.7 92.3934L158.942 55.5395C160.077 53.5628 160.627 51.401 160.627 49.2663C160.627 44.9157 158.374 40.6869 154.347 38.3582C148.341 34.8921 141.592 37.591 137.2 42.966C135.803 44.672 135.258 45.1459 133.893 47.5965C132.807 49.5461 130.392 54.7768 130.392 54.7768L130 54.664C130 54.664 132.325 49.8305 133.645 47.5378C133.915 47.0684 134.19 46.6126 134.474 46.1568C134.474 46.1568 134.474 46.1478 134.483 46.1478C145.35 28.9574 167.642 23.0002 185.623 32.5318H185.632C185.632 32.5318 185.654 32.5408 185.659 32.5453C185.857 32.6491 186.06 32.7575 186.258 32.8613C186.456 32.9786 186.65 33.0869 186.848 33.2043C186.871 33.2133 186.898 33.2268 186.92 33.2403C190.705 35.6052 192.8 39.7031 192.8 43.9003C192.8 46.0395 192.259 48.2012 191.115 50.178L191.11 50.187Z" fill="url(#paint8_linear_1645_1300)"/>
<path d="M89.9942 175.423L121.761 120.305C125.676 121.131 129.528 122.584 133.187 124.7C137.142 126.984 140.539 129.863 143.346 133.149C143.369 133.171 143.391 133.194 143.405 133.217L122.162 170.07C121.027 172.047 120.477 174.209 120.477 176.344C120.477 180.694 122.73 184.923 126.757 187.252C132.763 190.718 139.512 188.019 143.905 182.644C145.301 180.938 145.846 180.464 147.212 178.014C148.297 176.064 150.712 170.833 150.712 170.833L151.104 170.946C151.104 170.946 148.779 175.78 147.459 178.072C147.189 178.542 146.914 178.997 146.63 179.453C146.63 179.453 146.63 179.462 146.621 179.462C135.755 196.653 113.462 202.61 95.4816 193.078H95.4726C95.4726 193.078 95.4501 193.069 95.4456 193.065C95.2474 192.961 95.0446 192.853 94.8464 192.749C94.6482 192.631 94.4544 192.523 94.2562 192.406C94.2337 192.397 94.2066 192.383 94.1841 192.37C90.3997 190.005 88.3047 185.907 88.3047 181.71C88.3047 179.571 88.8453 177.409 89.9897 175.432L89.9942 175.423Z" fill="url(#paint9_linear_1645_1300)"/>
<path d="M147.958 175.426L180.018 120.186C185.289 121.296 186.839 122.203 191.155 124.703C195.111 126.987 198.508 129.866 201.315 133.152C201.337 133.174 201.36 133.197 201.373 133.219L180.131 170.073C178.996 172.05 178.446 174.212 178.446 176.346C178.446 180.697 180.699 184.926 184.726 187.255C190.732 190.721 197.481 188.022 201.873 182.647C203.27 180.941 203.815 180.467 205.18 178.016C206.266 176.067 208.681 170.836 208.681 170.836L209.073 170.949C209.073 170.949 206.748 175.782 205.428 178.075C205.158 178.544 204.883 179 204.599 179.456C204.599 179.456 204.599 179.465 204.59 179.465C193.723 196.655 171.431 202.613 153.45 193.081H153.441C153.441 193.081 153.419 193.072 153.414 193.067C153.216 192.964 153.013 192.855 152.815 192.751C152.617 192.634 152.423 192.526 152.225 192.408C152.202 192.399 152.175 192.386 152.153 192.372C148.368 190.008 146.273 185.91 146.273 181.712C146.273 179.573 146.814 177.411 147.958 175.435V175.426Z" fill="url(#paint10_linear_1645_1300)"/>
<path d="M205.932 175.423L237.699 120.305C241.614 121.131 245.466 122.584 249.124 124.7C253.08 126.984 256.477 129.863 259.284 133.149C259.306 133.171 259.329 133.194 259.342 133.217L238.1 170.07C236.964 172.047 236.415 174.209 236.415 176.344C236.415 180.694 238.667 184.923 242.695 187.252C248.701 190.718 255.45 188.019 259.842 182.644C261.239 180.938 261.784 180.464 263.149 178.014C264.235 176.064 266.65 170.833 266.65 170.833L267.042 170.946C267.042 170.946 264.717 175.78 263.397 178.072C263.127 178.542 262.852 178.997 262.568 179.453C262.568 179.453 262.568 179.462 262.559 179.462C251.692 196.653 229.4 202.61 211.419 193.078H211.41C211.41 193.078 211.388 193.069 211.383 193.065C211.185 192.961 210.982 192.853 210.784 192.749C210.586 192.631 210.392 192.523 210.194 192.406C210.171 192.397 210.144 192.383 210.122 192.37C206.337 190.005 204.242 185.907 204.242 181.71C204.242 179.571 204.783 177.409 205.927 175.432L205.932 175.423Z" fill="url(#paint11_linear_1645_1300)"/>
<path d="M381.805 121.124L350.038 176.242C346.123 175.416 342.271 173.963 338.613 171.846C334.657 169.563 331.26 167.139 328.453 163.854C328.431 163.831 328.512 164.373 328.453 163.854L349.637 126.481C350.773 124.504 351.322 122.342 351.322 120.208C351.322 115.857 349.07 111.628 345.042 109.3C339.036 105.834 332.287 108.532 327.895 113.907C326.498 115.613 325.953 116.087 324.588 118.538C323.502 120.488 321.087 125.718 321.087 125.718L320.695 125.605C320.695 125.605 323.02 120.772 324.34 118.479C324.61 118.01 324.885 117.554 325.169 117.098C325.169 117.098 325.169 117.089 325.178 117.089C336.045 99.8988 358.337 93.9416 376.318 103.473H376.327C376.327 103.473 376.349 103.482 376.354 103.487C376.552 103.591 376.755 103.699 376.953 103.803C377.151 103.92 377.345 104.028 377.543 104.146C377.566 104.155 377.593 104.168 377.615 104.182C381.4 106.547 383.495 110.644 383.495 114.842C383.495 116.981 382.954 119.143 381.81 121.119L381.805 121.124Z" fill="url(#paint12_linear_1645_1300)"/>
<path d="M439.176 121.124L407.409 176.243C403.494 175.417 399.642 173.964 395.984 171.847C392.028 169.563 388.631 166.684 385.825 163.399C385.802 163.376 385.78 163.353 385.766 163.331L407.009 126.477C408.144 124.5 408.693 122.339 408.693 120.204C408.693 115.853 406.441 111.624 402.413 109.296C396.408 105.83 389.659 108.528 385.266 113.904C383.869 115.61 383.324 116.083 381.959 118.534C380.873 120.484 378.458 125.714 378.458 125.714L378.066 125.601C378.066 125.601 380.391 120.768 381.711 118.475C381.982 118.006 382.256 117.55 382.54 117.094C382.54 117.094 382.54 117.085 382.549 117.085C393.416 99.8949 415.708 93.9377 433.689 103.469H433.698C433.698 103.469 433.721 103.478 433.725 103.483C433.923 103.587 434.126 103.695 434.324 103.799C434.522 103.916 434.716 104.024 434.914 104.142C434.937 104.151 434.964 104.164 434.987 104.178C438.771 106.543 440.866 110.641 440.866 114.838C440.866 116.977 440.325 119.139 439.181 121.115L439.176 121.124Z" fill="url(#paint13_linear_1645_1300)"/>
<path d="M378.623 175.423L410.39 120.305C414.305 121.131 418.157 122.584 421.815 124.7C425.771 126.984 429.168 129.863 431.975 133.149C431.998 133.171 432.02 133.194 432.034 133.217L410.791 170.07C409.656 172.047 409.106 174.209 409.106 176.344C409.106 180.694 411.359 184.923 415.386 187.252C421.392 190.718 428.141 188.019 432.534 182.644C433.93 180.938 434.475 180.464 435.841 178.014C436.926 176.064 439.341 170.833 439.341 170.833L439.733 170.946C439.733 170.946 437.408 175.78 436.088 178.072C435.818 178.542 435.543 178.997 435.259 179.453C435.259 179.453 435.259 179.462 435.25 179.462C424.384 196.653 402.091 202.61 384.111 193.078H384.102C384.102 193.078 384.079 193.069 384.075 193.065C383.876 192.961 383.674 192.853 383.475 192.749C383.277 192.631 383.083 192.523 382.885 192.406C382.863 192.397 382.836 192.383 382.813 192.37C379.029 190.005 376.934 185.907 376.934 181.71C376.934 179.571 377.474 177.409 378.619 175.432L378.623 175.423Z" fill="url(#paint14_linear_1645_1300)"/>
<line x1="4.37114e-08" y1="198.5" x2="537" y2="198.5" stroke="white" stroke-opacity="0.3"/>
<line x1="401" y1="209.5" x2="456" y2="209.5" stroke="white" stroke-opacity="0.3"/>
<line x1="408.336" y1="204.63" x2="419.336" y2="214.63" stroke="white" stroke-opacity="0.3"/>
<line x1="24.3363" y1="193.63" x2="35.3363" y2="203.63" stroke="white" stroke-opacity="0.3"/>
<line x1="24.3363" y1="93.63" x2="35.3363" y2="103.63" stroke="white" stroke-opacity="0.3"/>
<line x1="24.3363" y1="22.63" x2="35.3363" y2="32.63" stroke="white" stroke-opacity="0.3"/>
<line x1="437.336" y1="204.628" x2="448.336" y2="214.628" stroke="white" stroke-opacity="0.3"/>
<line x1="432.336" y1="215.63" x2="443.336" y2="225.63" stroke="white" stroke-opacity="0.3"/>
<line x1="58.3363" y1="215.63" x2="69.3363" y2="225.63" stroke="white" stroke-opacity="0.3"/>
<line x1="4.37114e-08" y1="98.5" x2="537" y2="98.5" stroke="white" stroke-opacity="0.3"/>
<line x1="29.5" y1="7" x2="29.5" y2="225" stroke="white" stroke-opacity="0.3"/>
<line x1="61.2428" y1="224.564" x2="186.89" y2="6.93691" stroke="white" stroke-opacity="0.3"/>
<line x1="90.567" y1="224.564" x2="216.214" y2="6.93691" stroke="white" stroke-opacity="0.3"/>
<line x1="119.567" y1="225.135" x2="211.587" y2="65.7509" stroke="white" stroke-opacity="0.3"/>
<line x1="177.567" y1="225.135" x2="269.587" y2="65.7509" stroke="white" stroke-opacity="0.3"/>
<line x1="235.567" y1="225.135" x2="327.587" y2="65.7509" stroke="white" stroke-opacity="0.3"/>
<line x1="293.567" y1="225.135" x2="385.587" y2="65.7509" stroke="white" stroke-opacity="0.3"/>
<line x1="350.567" y1="225.135" x2="442.587" y2="65.7509" stroke="white" stroke-opacity="0.3"/>
<line x1="405.567" y1="225.135" x2="497.587" y2="65.7509" stroke="white" stroke-opacity="0.3"/>
<line x1="148.567" y1="225.135" x2="240.587" y2="65.7509" stroke="white" stroke-opacity="0.3"/>
<line x1="206.567" y1="225.135" x2="298.587" y2="65.7509" stroke="white" stroke-opacity="0.3"/>
<line x1="264.567" y1="225.135" x2="356.587" y2="65.7509" stroke="white" stroke-opacity="0.3"/>
<line x1="322.567" y1="225.135" x2="414.587" y2="65.7509" stroke="white" stroke-opacity="0.3"/>
<line x1="379.567" y1="225.135" x2="471.587" y2="65.7509" stroke="white" stroke-opacity="0.3"/>
<line x1="434.567" y1="225.135" x2="526.587" y2="65.7509" stroke="white" stroke-opacity="0.3"/>
<line x1="4.37114e-08" y1="27.5" x2="537" y2="27.5" stroke="white" stroke-opacity="0.3"/>
<line x1="52" y1="220.5" x2="450" y2="220.5" stroke="white" stroke-opacity="0.3"/>
<path d="M460.5 181.5C464.333 182.833 472 188.2 472 199" stroke="white" stroke-opacity="0.3"/>
<path d="M483 190.26C482.307 190.26 481.707 190.173 481.2 190C480.693 189.813 480.26 189.587 479.9 189.32C479.553 189.04 479.267 188.747 479.04 188.44C478.827 188.133 478.66 187.86 478.54 187.62L479.36 186.96C479.587 187.267 479.853 187.56 480.16 187.84C480.48 188.12 480.853 188.353 481.28 188.54C481.72 188.713 482.247 188.8 482.86 188.8C483.473 188.8 483.98 188.673 484.38 188.42C484.793 188.167 485.1 187.833 485.3 187.42C485.5 187.007 485.6 186.553 485.6 186.06C485.6 185.087 485.293 184.38 484.68 183.94C484.067 183.487 483.18 183.267 482.02 183.28L482.14 182.28C482.86 182.2 483.447 182.013 483.9 181.72C484.367 181.427 484.713 181.06 484.94 180.62C485.167 180.18 485.28 179.7 485.28 179.18C485.28 178.513 485.08 177.967 484.68 177.54C484.28 177.1 483.707 176.88 482.96 176.88C482.493 176.88 482.067 176.967 481.68 177.14C481.293 177.313 481.02 177.527 480.86 177.78C481.073 178.073 481.227 178.32 481.32 178.52C481.427 178.72 481.48 178.873 481.48 178.98C481.48 179.127 481.427 179.28 481.32 179.44C481.227 179.6 481.093 179.733 480.92 179.84C480.76 179.947 480.567 180 480.34 180C480.033 180 479.78 179.933 479.58 179.8C479.393 179.667 479.253 179.493 479.16 179.28C479.067 179.053 479.02 178.833 479.02 178.62C479.02 178.127 479.187 177.653 479.52 177.2C479.867 176.747 480.353 176.38 480.98 176.1C481.607 175.807 482.347 175.66 483.2 175.66C484.027 175.66 484.74 175.8 485.34 176.08C485.94 176.347 486.407 176.74 486.74 177.26C487.073 177.78 487.24 178.407 487.24 179.14C487.24 179.687 487.113 180.187 486.86 180.64C486.62 181.093 486.293 181.487 485.88 181.82C485.467 182.14 485.007 182.387 484.5 182.56V182.62C485.1 182.74 485.64 182.933 486.12 183.2C486.613 183.467 487.007 183.84 487.3 184.32C487.593 184.787 487.74 185.387 487.74 186.12C487.74 186.773 487.613 187.353 487.36 187.86C487.12 188.367 486.78 188.8 486.34 189.16C485.9 189.52 485.393 189.793 484.82 189.98C484.247 190.167 483.64 190.26 483 190.26ZM494.6 190.26C493.507 190.26 492.58 189.953 491.82 189.34C491.06 188.727 490.487 187.887 490.1 186.82C489.713 185.74 489.52 184.527 489.52 183.18C489.52 181.793 489.667 180.62 489.96 179.66C490.267 178.687 490.667 177.907 491.16 177.32C491.667 176.733 492.233 176.313 492.86 176.06C493.487 175.793 494.127 175.66 494.78 175.66C495.673 175.66 496.493 175.913 497.24 176.42C498 176.927 498.607 177.7 499.06 178.74C499.527 179.78 499.76 181.1 499.76 182.7C499.76 184.353 499.527 185.74 499.06 186.86C498.607 187.98 497.987 188.827 497.2 189.4C496.427 189.973 495.56 190.26 494.6 190.26ZM494.78 189.1C495.247 189.1 495.66 188.98 496.02 188.74C496.38 188.5 496.68 188.133 496.92 187.64C497.173 187.147 497.36 186.52 497.48 185.76C497.613 184.987 497.68 184.067 497.68 183C497.68 181.947 497.613 181.027 497.48 180.24C497.347 179.453 497.147 178.807 496.88 178.3C496.613 177.78 496.287 177.393 495.9 177.14C495.527 176.887 495.093 176.76 494.6 176.76C494.147 176.76 493.733 176.867 493.36 177.08C493 177.293 492.687 177.64 492.42 178.12C492.153 178.6 491.947 179.227 491.8 180C491.653 180.773 491.58 181.72 491.58 182.84C491.58 183.813 491.647 184.687 491.78 185.46C491.927 186.233 492.133 186.893 492.4 187.44C492.667 187.973 493 188.387 493.4 188.68C493.8 188.96 494.26 189.1 494.78 189.1ZM503.721 179.04C502.894 179.04 502.288 178.82 501.901 178.38C501.514 177.927 501.321 177.367 501.321 176.7C501.321 176.073 501.528 175.527 501.941 175.06C502.354 174.593 502.968 174.36 503.781 174.36C504.554 174.36 505.141 174.573 505.541 175C505.941 175.427 506.141 175.98 506.141 176.66C506.141 177.313 505.928 177.873 505.501 178.34C505.088 178.807 504.494 179.04 503.721 179.04ZM503.761 178.08C504.161 178.08 504.474 177.947 504.701 177.68C504.941 177.413 505.061 177.087 505.061 176.7C505.061 176.273 504.941 175.94 504.701 175.7C504.461 175.447 504.128 175.32 503.701 175.32C503.301 175.32 502.988 175.453 502.761 175.72C502.534 175.973 502.421 176.3 502.421 176.7C502.421 177.087 502.528 177.413 502.741 177.68C502.954 177.947 503.294 178.08 503.761 178.08Z" fill="white"/>
<path d="M421.14 224V223.14L421.92 222.98C422.067 222.94 422.193 222.9 422.3 222.86C422.42 222.807 422.547 222.727 422.68 222.62C422.813 222.5 422.98 222.34 423.18 222.14L425.62 219.08L423.04 215.84C422.773 215.507 422.567 215.28 422.42 215.16C422.273 215.04 422.067 214.953 421.8 214.9L421.1 214.74L421.28 213.84H426.12V214.68L425.3 214.82C425.087 214.86 424.953 214.94 424.9 215.06C424.86 215.18 424.953 215.387 425.18 215.68L426.9 217.88L428.5 215.76C428.713 215.493 428.807 215.3 428.78 215.18C428.767 215.047 428.607 214.947 428.3 214.88L427.52 214.68L427.7 213.84H431.8V214.7L431.02 214.86C430.86 214.9 430.72 214.953 430.6 215.02C430.48 215.073 430.353 215.16 430.22 215.28C430.1 215.387 429.953 215.553 429.78 215.78L427.52 218.66L430.14 222C430.313 222.213 430.467 222.387 430.6 222.52C430.747 222.653 430.893 222.76 431.04 222.84C431.2 222.907 431.367 222.953 431.54 222.98L432.26 223.1V224H427V223.14L427.88 223.02C428.147 222.993 428.293 222.907 428.32 222.76C428.36 222.6 428.273 222.393 428.06 222.14L426.24 219.88L424.48 222.16C424.373 222.307 424.3 222.433 424.26 222.54C424.22 222.647 424.227 222.733 424.28 222.8C424.347 222.867 424.473 222.92 424.66 222.96L425.56 223.16V224H421.14Z" fill="white"/>
<path d="M252.78 245V244.12L254.58 243.84C254.86 243.787 255.04 243.687 255.12 243.54C255.2 243.38 255.24 243.153 255.24 242.86V233.6C255.24 233.213 255.2 232.933 255.12 232.76C255.053 232.573 254.807 232.46 254.38 232.42L252.7 232.26L252.8 231.4L257 230.7L257.22 230.92V242.92C257.22 243.227 257.26 243.447 257.34 243.58C257.42 243.7 257.607 243.787 257.9 243.84L259.64 244.12V245H252.78ZM265.125 245.26C264.432 245.26 263.832 245.173 263.325 245C262.818 244.813 262.385 244.587 262.025 244.32C261.678 244.04 261.392 243.747 261.165 243.44C260.952 243.133 260.785 242.86 260.665 242.62L261.485 241.96C261.712 242.267 261.978 242.56 262.285 242.84C262.605 243.12 262.978 243.353 263.405 243.54C263.845 243.713 264.372 243.8 264.985 243.8C265.598 243.8 266.105 243.673 266.505 243.42C266.918 243.167 267.225 242.833 267.425 242.42C267.625 242.007 267.725 241.553 267.725 241.06C267.725 240.087 267.418 239.38 266.805 238.94C266.192 238.487 265.305 238.267 264.145 238.28L264.265 237.28C264.985 237.2 265.572 237.013 266.025 236.72C266.492 236.427 266.838 236.06 267.065 235.62C267.292 235.18 267.405 234.7 267.405 234.18C267.405 233.513 267.205 232.967 266.805 232.54C266.405 232.1 265.832 231.88 265.085 231.88C264.618 231.88 264.192 231.967 263.805 232.14C263.418 232.313 263.145 232.527 262.985 232.78C263.198 233.073 263.352 233.32 263.445 233.52C263.552 233.72 263.605 233.873 263.605 233.98C263.605 234.127 263.552 234.28 263.445 234.44C263.352 234.6 263.218 234.733 263.045 234.84C262.885 234.947 262.692 235 262.465 235C262.158 235 261.905 234.933 261.705 234.8C261.518 234.667 261.378 234.493 261.285 234.28C261.192 234.053 261.145 233.833 261.145 233.62C261.145 233.127 261.312 232.653 261.645 232.2C261.992 231.747 262.478 231.38 263.105 231.1C263.732 230.807 264.472 230.66 265.325 230.66C266.152 230.66 266.865 230.8 267.465 231.08C268.065 231.347 268.532 231.74 268.865 232.26C269.198 232.78 269.365 233.407 269.365 234.14C269.365 234.687 269.238 235.187 268.985 235.64C268.745 236.093 268.418 236.487 268.005 236.82C267.592 237.14 267.132 237.387 266.625 237.56V237.62C267.225 237.74 267.765 237.933 268.245 238.2C268.738 238.467 269.132 238.84 269.425 239.32C269.718 239.787 269.865 240.387 269.865 241.12C269.865 241.773 269.738 242.353 269.485 242.86C269.245 243.367 268.905 243.8 268.465 244.16C268.025 244.52 267.518 244.793 266.945 244.98C266.372 245.167 265.765 245.26 265.125 245.26ZM271.105 245V244.14L271.885 243.98C272.032 243.94 272.158 243.9 272.265 243.86C272.385 243.807 272.512 243.727 272.645 243.62C272.778 243.5 272.945 243.34 273.145 243.14L275.585 240.08L273.005 236.84C272.738 236.507 272.532 236.28 272.385 236.16C272.238 236.04 272.032 235.953 271.765 235.9L271.065 235.74L271.245 234.84H276.085V235.68L275.265 235.82C275.052 235.86 274.918 235.94 274.865 236.06C274.825 236.18 274.918 236.387 275.145 236.68L276.865 238.88L278.465 236.76C278.678 236.493 278.772 236.3 278.745 236.18C278.732 236.047 278.572 235.947 278.265 235.88L277.485 235.68L277.665 234.84H281.765V235.7L280.985 235.86C280.825 235.9 280.685 235.953 280.565 236.02C280.445 236.073 280.318 236.16 280.185 236.28C280.065 236.387 279.918 236.553 279.745 236.78L277.485 239.66L280.105 243C280.278 243.213 280.432 243.387 280.565 243.52C280.712 243.653 280.858 243.76 281.005 243.84C281.165 243.907 281.332 243.953 281.505 243.98L282.225 244.1V245H276.965V244.14L277.845 244.02C278.112 243.993 278.258 243.907 278.285 243.76C278.325 243.6 278.238 243.393 278.025 243.14L276.205 240.88L274.445 243.16C274.338 243.307 274.265 243.433 274.225 243.54C274.185 243.647 274.192 243.733 274.245 243.8C274.312 243.867 274.438 243.92 274.625 243.96L275.525 244.16V245H271.105Z" fill="white"/>
<path d="M9.22 70.6C8.60667 70.6 8.11333 70.4533 7.74 70.16C7.38 69.88 7.2 69.4933 7.2 69C7.2 68.6267 7.32 68.3133 7.56 68.06C7.8 67.8067 8.10667 67.68 8.48 67.68C8.78667 67.68 9.03333 67.7467 9.22 67.88C9.40667 68.0133 9.51333 68.1933 9.54 68.42C9.55333 68.5133 9.54667 68.6533 9.52 68.84C9.50667 69.0267 9.48 69.2733 9.44 69.58C9.72 69.5933 9.97333 69.5333 10.2 69.4C10.4267 69.28 10.6533 69.0333 10.88 68.66C11.12 68.2867 11.3933 67.7467 11.7 67.04L12.18 65.92L8.82 57.92C8.66 57.52 8.52667 57.2667 8.42 57.16C8.32667 57.04 8.16667 56.9533 7.94 56.9L7.24 56.74L7.44 55.84H12.18V56.68L11.22 56.82C10.98 56.8467 10.82 56.9267 10.74 57.06C10.66 57.1933 10.6933 57.4467 10.84 57.82L13.12 63.58H13.22L15.48 57.96C15.6133 57.64 15.6467 57.4 15.58 57.24C15.5133 57.0667 15.3267 56.9467 15.02 56.88L14.16 56.68L14.34 55.84H18.4V56.7L17.68 56.86C17.4667 56.9133 17.3 57 17.18 57.12C17.0733 57.24 16.9267 57.5133 16.74 57.94L12.9 67.06C12.62 67.74 12.3467 68.3067 12.08 68.76C11.8133 69.2133 11.5333 69.5733 11.24 69.84C10.96 70.1067 10.6533 70.3 10.32 70.42C10 70.54 9.63333 70.6 9.22 70.6Z" fill="white"/>
<path d="M2.8 157L2.64 155.66C3.70667 154.567 4.60667 153.613 5.34 152.8C6.08667 151.973 6.7 151.26 7.18 150.66C7.66 150.06 8.03333 149.527 8.3 149.06C8.56667 148.593 8.75333 148.16 8.86 147.76C8.96667 147.36 9.02 146.947 9.02 146.52C9.02 145.707 8.80667 145.067 8.38 144.6C7.95333 144.12 7.35333 143.88 6.58 143.88C6.03333 143.88 5.56667 143.967 5.18 144.14C4.80667 144.313 4.54667 144.52 4.4 144.76C4.53333 144.947 4.64667 145.113 4.74 145.26C4.83333 145.407 4.9 145.54 4.94 145.66C4.99333 145.78 5.02 145.88 5.02 145.96C5.02 146.187 4.91333 146.413 4.7 146.64C4.48667 146.867 4.21333 146.98 3.88 146.98C3.42667 146.98 3.09333 146.84 2.88 146.56C2.66667 146.267 2.56 145.947 2.56 145.6C2.56 145.107 2.74 144.64 3.1 144.2C3.46 143.747 3.96667 143.38 4.62 143.1C5.27333 142.807 6.02667 142.66 6.88 142.66C7.72 142.66 8.45333 142.813 9.08 143.12C9.72 143.427 10.22 143.873 10.58 144.46C10.94 145.033 11.12 145.72 11.12 146.52C11.12 146.933 11.06 147.353 10.94 147.78C10.82 148.207 10.6133 148.66 10.32 149.14C10.04 149.62 9.65333 150.16 9.16 150.76C8.66667 151.347 8.05333 152.007 7.32 152.74C6.58667 153.46 5.70667 154.287 4.68 155.22H7.86C8.28667 155.22 8.62667 155.2 8.88 155.16C9.14667 155.12 9.36 155.033 9.52 154.9C9.68 154.753 9.82667 154.533 9.96 154.24C10.1067 153.947 10.2733 153.553 10.46 153.06H11.44L11.06 157H2.8ZM14.4153 161.6C13.802 161.6 13.3086 161.453 12.9353 161.16C12.5753 160.88 12.3953 160.493 12.3953 160C12.3953 159.627 12.5153 159.313 12.7553 159.06C12.9953 158.807 13.302 158.68 13.6753 158.68C13.982 158.68 14.2286 158.747 14.4153 158.88C14.602 159.013 14.7086 159.193 14.7353 159.42C14.7486 159.513 14.742 159.653 14.7153 159.84C14.702 160.027 14.6753 160.273 14.6353 160.58C14.9153 160.593 15.1686 160.533 15.3953 160.4C15.622 160.28 15.8486 160.033 16.0753 159.66C16.3153 159.287 16.5886 158.747 16.8953 158.04L17.3753 156.92L14.0153 148.92C13.8553 148.52 13.722 148.267 13.6153 148.16C13.522 148.04 13.362 147.953 13.1353 147.9L12.4353 147.74L12.6353 146.84H17.3753V147.68L16.4153 147.82C16.1753 147.847 16.0153 147.927 15.9353 148.06C15.8553 148.193 15.8886 148.447 16.0353 148.82L18.3153 154.58H18.4153L20.6753 148.96C20.8086 148.64 20.842 148.4 20.7753 148.24C20.7086 148.067 20.522 147.947 20.2153 147.88L19.3553 147.68L19.5353 146.84H23.5953V147.7L22.8753 147.86C22.662 147.913 22.4953 148 22.3753 148.12C22.2686 148.24 22.122 148.513 21.9353 148.94L18.0953 158.06C17.8153 158.74 17.542 159.307 17.2753 159.76C17.0086 160.213 16.7286 160.573 16.4353 160.84C16.1553 161.107 15.8486 161.3 15.5153 161.42C15.1953 161.54 14.8286 161.6 14.4153 161.6Z" fill="white"/>
<defs>
<filter id="filter0_f_1645_1300" x="489.337" y="51.8121" width="39.5711" height="39.6141" filterUnits="userSpaceOnUse" color-interpolation-filters="sRGB">
<feFlood flood-opacity="0" result="BackgroundImageFix"/>
<feBlend mode="normal" in="SourceGraphic" in2="BackgroundImageFix" result="shape"/>
<feGaussianBlur stdDeviation="0.8" result="effect1_foregroundBlur_1645_1300"/>
</filter>
<linearGradient id="paint0_linear_1645_1300" x1="45.3712" y1="148.139" x2="510.806" y2="148.139" gradientUnits="userSpaceOnUse">
<stop stop-color="#2C7DFF"/>
<stop offset="1" stop-color="#78ACFF"/>
</linearGradient>
<radialGradient id="paint1_radial_1645_1300" cx="0" cy="0" r="1" gradientTransform="matrix(15.6375 -27.9584 27.9242 15.6568 501.566 86.5859)" gradientUnits="userSpaceOnUse">
<stop stop-color="#2C7DFF"/>
<stop offset="1" stop-color="#78ACFF" stop-opacity="0"/>
</radialGradient>
<linearGradient id="paint2_linear_1645_1300" x1="60.2104" y1="146.901" x2="518.329" y2="143.468" gradientUnits="userSpaceOnUse">
<stop stop-color="#2C7DFF"/>
<stop offset="1" stop-color="#78ACFF"/>
</linearGradient>
<linearGradient id="paint3_linear_1645_1300" x1="59.2697" y1="150.16" x2="511.26" y2="150.16" gradientUnits="userSpaceOnUse">
<stop stop-color="#2C7DFF"/>
<stop offset="1" stop-color="#78ACFF"/>
</linearGradient>
<linearGradient id="paint4_linear_1645_1300" x1="71.817" y1="148.048" x2="507.796" y2="148.048" gradientUnits="userSpaceOnUse">
<stop stop-color="#2C7DFF"/>
<stop offset="1" stop-color="#78ACFF"/>
</linearGradient>
<linearGradient id="paint5_linear_1645_1300" x1="62.9867" y1="146.828" x2="513.071" y2="146.828" gradientUnits="userSpaceOnUse">
<stop stop-color="#2C7DFF"/>
<stop offset="1" stop-color="#78ACFF"/>
</linearGradient>
<linearGradient id="paint6_linear_1645_1300" x1="65.7181" y1="110.606" x2="509.978" y2="110.606" gradientUnits="userSpaceOnUse">
<stop stop-color="#2C7DFF"/>
<stop offset="1" stop-color="#78ACFF"/>
</linearGradient>
<linearGradient id="paint7_linear_1645_1300" x1="63.198" y1="146.537" x2="516.261" y2="146.537" gradientUnits="userSpaceOnUse">
<stop stop-color="#2C7DFF"/>
<stop offset="1" stop-color="#78ACFF"/>
</linearGradient>
<linearGradient id="paint8_linear_1645_1300" x1="63.2989" y1="66.6552" x2="507.558" y2="66.6552" gradientUnits="userSpaceOnUse">
<stop stop-color="#2C7DFF"/>
<stop offset="1" stop-color="#29B8FF"/>
</linearGradient>
<linearGradient id="paint9_linear_1645_1300" x1="65.7151" y1="158.95" x2="509.975" y2="158.95" gradientUnits="userSpaceOnUse">
<stop stop-color="#2C7DFF"/>
<stop offset="1" stop-color="#78ACFF"/>
</linearGradient>
<linearGradient id="paint10_linear_1645_1300" x1="64.8174" y1="158.894" x2="509.077" y2="158.894" gradientUnits="userSpaceOnUse">
<stop stop-color="#2C7DFF"/>
<stop offset="1" stop-color="#78ACFF"/>
</linearGradient>
<linearGradient id="paint11_linear_1645_1300" x1="64.8164" y1="158.95" x2="509.076" y2="158.95" gradientUnits="userSpaceOnUse">
<stop stop-color="#2C7DFF"/>
<stop offset="1" stop-color="#78ACFF"/>
</linearGradient>
<linearGradient id="paint12_linear_1645_1300" x1="64.8163" y1="137.592" x2="509.076" y2="137.592" gradientUnits="userSpaceOnUse">
<stop stop-color="#2C7DFF"/>
<stop offset="1" stop-color="#78ACFF"/>
</linearGradient>
<linearGradient id="paint13_linear_1645_1300" x1="64.8167" y1="137.593" x2="509.076" y2="137.593" gradientUnits="userSpaceOnUse">
<stop stop-color="#2C7DFF"/>
<stop offset="1" stop-color="#78ACFF"/>
</linearGradient>
<linearGradient id="paint14_linear_1645_1300" x1="65.5897" y1="158.95" x2="509.845" y2="158.95" gradientUnits="userSpaceOnUse">
<stop stop-color="#2C7DFF"/>
<stop offset="1" stop-color="#78ACFF"/>
</linearGradient>
</defs>
</svg>
