<svg width="68" height="69" viewBox="0 0 68 69" fill="none" xmlns="http://www.w3.org/2000/svg">
<rect y="1" width="68" height="68" rx="34" fill="white"/>
<path d="M37.9149 30.0136C36.0093 28.9772 33.5718 29.5909 32.4739 31.3852L19.05 53.2282C17.9492 55.0224 18.604 57.3147 20.5096 58.3511C22.4124 59.3875 24.8499 58.7711 25.9492 56.9795L39.3731 35.1365C39.7362 34.5469 39.9078 33.8995 39.9078 33.2642C39.9078 31.9666 39.1958 30.7081 37.9164 30.0136H37.9149ZM35.5733 39.4087L24.8713 56.779C24.055 58.1088 22.2494 58.5665 20.8356 57.7979C19.4231 57.0293 18.9371 55.3293 19.7534 53.9968L30.4553 36.6265C31.2716 35.2967 33.0772 34.839 34.4911 35.6076C35.4389 36.1231 35.9693 37.0572 35.9693 38.0196C35.9693 38.4921 35.842 38.9713 35.5733 39.4087Z" fill="url(#paint0_linear_1970_1396)"/>
<g filter="url(#filter0_f_1970_1396)">
<path d="M46.0396 16.6572L46.0374 16.6561C42.7678 14.8796 38.5869 15.9338 36.6991 19.0108L36.6979 19.0128C34.8101 22.0898 35.9304 26.0243 39.2001 27.8008L39.2022 27.8019C42.4719 29.5784 46.6528 28.5242 48.5405 25.4472L48.5418 25.4452C50.4295 22.3682 49.3093 18.4337 46.0396 16.6572Z" fill="url(#paint1_radial_1970_1396)"/>
</g>
<defs>
<filter id="filter0_f_1970_1396" x="34.1812" y="14.193" width="16.8758" height="16.0711" filterUnits="userSpaceOnUse" color-interpolation-filters="sRGB">
<feFlood flood-opacity="0" result="BackgroundImageFix"/>
<feBlend mode="normal" in="SourceGraphic" in2="BackgroundImageFix" result="shape"/>
<feGaussianBlur stdDeviation="0.8" result="effect1_foregroundBlur_1970_1396"/>
</filter>
<linearGradient id="paint0_linear_1970_1396" x1="-103.999" y1="44.1817" x2="43.6891" y2="44.1817" gradientUnits="userSpaceOnUse">
<stop stop-color="#2C7DFF"/>
<stop offset="1" stop-color="#78ACFF"/>
</linearGradient>
<radialGradient id="paint1_radial_1970_1396" cx="0" cy="0" r="1" gradientTransform="matrix(5.88112 -9.88304 10.502 5.53451 39.7775 27.5197)" gradientUnits="userSpaceOnUse">
<stop stop-color="#2C7DFF"/>
<stop offset="1" stop-color="#78ACFF" stop-opacity="0"/>
</radialGradient>
</defs>
</svg>
