<svg width="175" height="95" viewBox="0 0 175 95" fill="none" xmlns="http://www.w3.org/2000/svg">
<rect width="175" height="95" rx="20" fill="white"/>
<path d="M143.087 44.1316C141.341 43.1256 139.106 43.7214 138.1 45.4628L125.795 66.6634C124.785 68.4049 125.386 70.6297 127.133 71.6356C128.877 72.6416 131.111 72.0432 132.119 70.3044L144.424 49.1038C144.757 48.5316 144.914 47.9032 144.914 47.2866C144.914 46.0272 144.262 44.8057 143.089 44.1316H143.087ZM140.941 53.2504L131.131 70.1097C130.382 71.4005 128.727 71.8447 127.431 71.0987C126.137 70.3527 125.691 68.7027 126.439 67.4094L136.249 50.55C136.998 49.2593 138.653 48.8151 139.949 49.5611C140.818 50.0614 141.304 50.9681 141.304 51.9022C141.304 52.3607 141.187 52.8258 140.941 53.2504Z" fill="url(#paint0_linear_1646_1361)"/>
<g filter="url(#filter0_f_1646_1361)">
<path d="M150.538 31.1681L150.536 31.1669C147.539 29.4427 143.707 30.4659 141.976 33.4524L141.975 33.4543C140.245 36.4408 141.271 40.2596 144.269 41.9838L144.271 41.985C147.268 43.7092 151.1 42.686 152.831 39.6995L152.832 39.6975C154.562 36.7111 153.535 32.8923 150.538 31.1681Z" fill="url(#paint1_radial_1646_1361)"/>
</g>
<path d="M77.2911 71.6859C75.5443 70.6813 74.9467 68.4551 75.9544 66.7137L88.1915 45.5863C89.1993 43.8448 91.4323 43.2491 93.1791 44.2537C94.926 45.2584 95.5236 47.4845 94.5158 49.2259L82.2787 70.3534C81.271 72.0948 79.038 72.6906 77.2911 71.6859Z" fill="url(#paint2_linear_1646_1361)"/>
<path d="M111.348 48.3758C111.348 48.995 111.191 49.6208 110.858 50.193L101.618 66.1483L99.1188 70.3798C98.1124 72.1212 95.8781 72.717 94.1325 71.7136C92.3857 70.7077 91.7855 68.4829 92.7945 66.7414L95.3381 62.4315L104.534 46.5546C105.492 44.8994 107.557 44.2788 109.259 45.0862H109.262C109.262 45.0862 109.268 45.0888 109.27 45.0901C109.327 45.1202 109.386 45.1515 109.444 45.1816C109.471 45.192 109.496 45.2064 109.523 45.2221C109.554 45.2417 109.587 45.2573 109.616 45.2809C109.622 45.2835 109.63 45.2874 109.637 45.2913C110.737 45.9759 111.347 47.1621 111.347 48.3771L111.348 48.3758Z" fill="url(#paint3_linear_1646_1361)"/>
<path d="M127.935 48.3758C127.935 48.995 127.778 49.6208 127.445 50.193L118.205 66.1483L116.381 69.1583C115.374 70.8997 113.14 71.4955 111.394 70.4921C109.647 69.4862 109.047 67.2614 110.056 65.5199L111.925 62.4315L121.12 46.5546C122.078 44.8994 124.144 44.2788 125.846 45.0862H125.849C125.849 45.0862 125.855 45.0888 125.856 45.0901C125.914 45.1202 125.973 45.1515 126.031 45.1816C126.058 45.192 126.083 45.2064 126.109 45.2221C126.141 45.2417 126.174 45.2573 126.202 45.2809C126.209 45.2835 126.217 45.2874 126.223 45.2913C127.324 45.9759 127.934 47.1621 127.934 48.3771L127.935 48.3758Z" fill="url(#paint4_linear_1646_1361)"/>
<path d="M59.2109 67.5972C59.2109 66.978 59.3682 66.3522 59.701 65.78L68.9411 49.8247L71.3589 45.5867C72.3653 43.8452 74.5997 43.2495 76.3452 44.2528C78.0921 45.2587 78.6923 47.4836 77.6832 49.225L75.2208 53.5415L66.0253 69.4184C65.0674 71.0736 63.0021 71.6942 61.2998 70.8868H61.2972C61.2972 70.8868 61.2906 70.8842 61.2893 70.8829C61.2317 70.8528 61.1727 70.8215 61.115 70.7914C61.0875 70.781 61.0626 70.7666 61.0364 70.7509C61.005 70.7313 60.9722 70.7156 60.9434 70.6921C60.9368 70.6895 60.929 70.6856 60.9224 70.6817C59.8216 69.9971 59.2122 68.8109 59.2122 67.5959L59.2109 67.5972Z" fill="url(#paint5_linear_1646_1361)"/>
<path d="M25.5312 67.5978C25.5312 66.9786 25.6885 66.3528 26.0214 65.7806L47.5955 28.3686L49.7682 24.6179C50.7747 22.8765 53.009 22.2807 54.7545 23.2841C56.5014 24.29 57.1016 26.5148 56.0925 28.2563L53.8752 32.0854L32.3457 69.4203C31.3877 71.0755 29.3224 71.6961 27.6201 70.8887H27.6175C27.6175 70.8887 27.611 70.8861 27.6096 70.8848C27.552 70.8547 27.493 70.8234 27.4354 70.7933C27.4078 70.7829 27.3829 70.7685 27.3567 70.7528C27.3253 70.7332 27.2925 70.7175 27.2637 70.694C27.2571 70.6914 27.2493 70.6875 27.2427 70.6836C26.1419 69.999 25.5326 68.8128 25.5326 67.5978H25.5312Z" fill="url(#paint6_linear_1646_1361)"/>
<path d="M42.4141 67.5971C42.4141 66.9779 42.5713 66.3521 42.9042 65.7799L52.1442 49.8246L54.6878 45.4167C55.6943 43.6753 57.9286 43.0796 59.6741 44.0829C61.421 45.0888 62.0212 47.3137 61.0121 49.0551L58.424 53.5414L49.2285 69.4183C48.2705 71.0735 46.2052 71.6941 44.5029 70.8867H44.5003C44.5003 70.8867 44.4938 70.8841 44.4925 70.8828C44.4348 70.8527 44.3758 70.8214 44.3182 70.7913C44.2906 70.7809 44.2657 70.7665 44.2395 70.7508C44.2081 70.7312 44.1753 70.7156 44.1465 70.692C44.1399 70.6894 44.1321 70.6855 44.1255 70.6816C43.0247 69.997 42.4154 68.8108 42.4154 67.5958L42.4141 67.5971Z" fill="url(#paint7_linear_1646_1361)"/>
<path d="M56.0954 28.2975L46.8553 44.2529C45.7166 44.0138 44.5961 43.5931 43.532 42.9804C42.3814 42.3194 41.3933 41.4859 40.5769 40.5348C40.5704 40.5282 40.5638 40.5217 40.5599 40.5152L46.7387 29.847C47.069 29.2748 47.2288 28.649 47.2288 28.031C47.2288 26.7717 46.5736 25.5475 45.4021 24.8734C43.6552 23.8701 41.6921 24.6513 40.4144 26.2073C40.0082 26.7011 39.8496 26.8383 39.4526 27.5477C39.1367 28.112 38.4343 29.6262 38.4343 29.6262L38.3203 29.5935C38.3203 29.5935 38.9965 28.1943 39.3805 27.5307C39.4591 27.3948 39.539 27.2629 39.6216 27.1309C39.6216 27.1309 39.6216 27.1283 39.6242 27.1283C42.7851 22.1522 49.2692 20.4277 54.4993 23.1868H54.5019C54.5019 23.1868 54.5084 23.1894 54.5098 23.1908C54.5674 23.2208 54.6264 23.2522 54.684 23.2822C54.7417 23.3162 54.7981 23.3475 54.8557 23.3815C54.8623 23.3841 54.8701 23.388 54.8767 23.3919C55.9775 24.0765 56.5868 25.2627 56.5868 26.4777C56.5868 27.0969 56.4296 27.7227 56.0967 28.2949L56.0954 28.2975Z" fill="url(#paint8_linear_1646_1361)"/>
<path d="M25.9797 65.7815L35.2198 49.8262C36.3586 50.0652 37.479 50.4859 38.5431 51.0986C39.6937 51.7597 40.6818 52.5932 41.4982 53.5442C41.5047 53.5508 41.5113 53.5573 41.5152 53.5638L35.3364 64.2321C35.0062 64.8043 34.8463 65.43 34.8463 66.048C34.8463 67.3074 35.5015 68.5315 36.6731 69.2056C38.4199 70.2089 40.383 69.4277 41.6607 67.8718C42.0669 67.3779 42.2255 67.2407 42.6226 66.5314C42.9384 65.967 43.6408 64.4528 43.6408 64.4528L43.7548 64.4855C43.7548 64.4855 43.0786 65.8847 42.6946 66.5483C42.616 66.6842 42.5361 66.8162 42.4535 66.9481C42.4535 66.9481 42.4535 66.9507 42.4509 66.9507C39.2901 71.9269 32.8059 73.6514 27.5758 70.8922H27.5732C27.5732 70.8922 27.5667 70.8896 27.5654 70.8883C27.5077 70.8582 27.4487 70.8269 27.3911 70.7968C27.3334 70.7629 27.2771 70.7315 27.2194 70.6975C27.2128 70.6949 27.205 70.691 27.1984 70.6871C26.0976 70.0025 25.4883 68.8163 25.4883 67.6013C25.4883 66.9821 25.6455 66.3563 25.9784 65.7841L25.9797 65.7815Z" fill="url(#paint9_linear_1646_1361)"/>
<path d="M42.8378 65.7816L52.163 49.791C53.6963 50.1124 54.1471 50.375 55.4025 51.0987C56.5531 51.7598 57.5412 52.5933 58.3576 53.5444C58.3641 53.5509 58.3707 53.5574 58.3746 53.564L52.1958 64.2322C51.8655 64.8044 51.7057 65.4302 51.7057 66.0481C51.7057 67.3075 52.3609 68.5316 53.5324 69.2057C55.2793 70.209 57.2424 69.4278 58.5201 67.8719C58.9263 67.378 59.0849 67.2409 59.4819 66.5315C59.7978 65.9671 60.5002 64.453 60.5002 64.453L60.6142 64.4856C60.6142 64.4856 59.938 65.8848 59.554 66.5485C59.4754 66.6843 59.3955 66.8163 59.3129 66.9482C59.3129 66.9482 59.3129 66.9508 59.3103 66.9508C56.1494 71.927 49.6653 73.6515 44.4352 70.8923H44.4326C44.4326 70.8923 44.4261 70.8897 44.4247 70.8884C44.3671 70.8583 44.3081 70.827 44.2504 70.7969C44.1928 70.763 44.1364 70.7316 44.0788 70.6977C44.0722 70.695 44.0644 70.6911 44.0578 70.6872C42.957 70.0026 42.3477 68.8164 42.3477 67.6014C42.3477 66.9822 42.5049 66.3564 42.8378 65.7842V65.7816Z" fill="url(#paint10_linear_1646_1361)"/>
<path d="M59.7024 65.7815L68.9424 49.8262C70.0812 50.0652 71.2017 50.4859 72.2658 51.0986C73.4163 51.7597 74.4044 52.5932 75.2208 53.5442C75.2274 53.5508 75.2339 53.5573 75.2379 53.5638L69.0591 64.2321C68.7288 64.8043 68.5689 65.43 68.5689 66.048C68.5689 67.3074 69.2242 68.5315 70.3957 69.2056C72.1426 70.2089 74.1056 69.4277 75.3833 67.8718C75.7896 67.3779 75.9482 67.2407 76.3452 66.5314C76.661 65.967 77.3634 64.4528 77.3634 64.4528L77.4775 64.4855C77.4775 64.4855 76.8013 65.8847 76.4173 66.5483C76.3387 66.6842 76.2587 66.8162 76.1762 66.9481C76.1762 66.9481 76.1762 66.9507 76.1736 66.9507C73.0127 71.9269 66.5286 73.6514 61.2985 70.8922H61.2959C61.2959 70.8922 61.2893 70.8896 61.288 70.8883C61.2304 70.8582 61.1714 70.8269 61.1137 70.7968C61.0561 70.7629 60.9997 70.7315 60.9421 70.6975C60.9355 70.6949 60.9276 70.691 60.9211 70.6871C59.8203 70.0025 59.2109 68.8163 59.2109 67.6013C59.2109 66.9821 59.3682 66.3563 59.701 65.7841L59.7024 65.7815Z" fill="url(#paint11_linear_1646_1361)"/>
<path d="M110.857 50.0619L101.617 66.0172C100.478 65.7781 99.3578 65.3574 98.2937 64.7447C97.1432 64.0837 96.1551 63.3821 95.3386 62.431C95.3321 62.4245 95.3557 62.5813 95.3386 62.431L101.5 51.6126C101.831 51.0404 101.991 50.4146 101.991 49.7967C101.991 48.5373 101.335 47.3132 100.164 46.639C98.4169 45.6357 96.4538 46.417 95.1761 47.9729C94.7699 48.4667 94.6113 48.6039 94.2143 49.3133C93.8985 49.8777 93.196 51.3918 93.196 51.3918L93.082 51.3591C93.082 51.3591 93.7582 49.96 94.1422 49.2963C94.2208 49.1604 94.3008 49.0285 94.3833 48.8965C94.3833 48.8965 94.3833 48.8939 94.3859 48.8939C97.5468 43.9178 104.031 42.1933 109.261 44.9525H109.264C109.264 44.9525 109.27 44.9551 109.271 44.9564C109.329 44.9864 109.388 45.0178 109.446 45.0478C109.503 45.0818 109.56 45.1131 109.617 45.1471C109.624 45.1497 109.632 45.1536 109.638 45.1576C110.739 45.8421 111.349 47.0284 111.349 48.2433C111.349 48.8626 111.191 49.4883 110.858 50.0606L110.857 50.0619Z" fill="url(#paint12_linear_1646_1361)"/>
<path d="M127.545 50.0612L118.305 66.0165C117.166 65.7775 116.045 65.3568 114.981 64.7441C113.831 64.083 112.843 63.2495 112.026 62.2985C112.02 62.2919 112.013 62.2854 112.009 62.2789L118.188 51.6106C118.518 51.0384 118.678 50.4126 118.678 49.7947C118.678 48.5353 118.023 47.3112 116.851 46.6371C115.104 45.6338 113.141 46.415 111.864 47.971C111.457 48.4648 111.299 48.6019 110.902 49.3113C110.586 49.8757 109.884 51.3898 109.884 51.3898L109.77 51.3572C109.77 51.3572 110.446 49.958 110.83 49.2944C110.908 49.1585 110.988 49.0265 111.071 48.8946C111.071 48.8946 111.071 48.892 111.073 48.892C114.234 43.9158 120.718 42.1913 125.948 44.9505H125.951C125.951 44.9505 125.958 44.9531 125.959 44.9544C126.017 44.9845 126.076 45.0158 126.133 45.0459C126.191 45.0798 126.247 45.1112 126.305 45.1452C126.311 45.1478 126.319 45.1517 126.326 45.1556C127.427 45.8402 128.036 47.0264 128.036 48.2414C128.036 48.8606 127.879 49.4864 127.546 50.0586L127.545 50.0612Z" fill="url(#paint13_linear_1646_1361)"/>
<path d="M109.933 65.7815L119.173 49.8262C120.312 50.0652 121.432 50.4859 122.496 51.0986C123.647 51.7597 124.635 52.5932 125.451 53.5442C125.458 53.5508 125.464 53.5573 125.468 53.5638L119.29 64.2321C118.959 64.8043 118.799 65.43 118.799 66.048C118.799 67.3074 119.455 68.5315 120.626 69.2056C122.373 70.2089 124.336 69.4277 125.614 67.8718C126.02 67.3779 126.179 67.2407 126.576 66.5314C126.892 65.967 127.594 64.4528 127.594 64.4528L127.708 64.4855C127.708 64.4855 127.032 65.8847 126.648 66.5483C126.569 66.6842 126.489 66.8162 126.407 66.9481C126.407 66.9481 126.407 66.9507 126.404 66.9507C123.243 71.9269 116.759 73.6514 111.529 70.8922H111.526C111.526 70.8922 111.52 70.8896 111.519 70.8883C111.461 70.8582 111.402 70.8269 111.344 70.7968C111.287 70.7629 111.23 70.7315 111.173 70.6975C111.166 70.6949 111.158 70.691 111.152 70.6871C110.051 70.0025 109.441 68.8163 109.441 67.6013C109.441 66.9821 109.599 66.3563 109.932 65.7841L109.933 65.7815Z" fill="url(#paint14_linear_1646_1361)"/>
<defs>
<filter id="filter0_f_1646_1361" x="139.533" y="28.7301" width="15.7391" height="15.6922" filterUnits="userSpaceOnUse" color-interpolation-filters="sRGB">
<feFlood flood-opacity="0" result="BackgroundImageFix"/>
<feBlend mode="normal" in="SourceGraphic" in2="BackgroundImageFix" result="shape"/>
<feGaussianBlur stdDeviation="0.8" result="effect1_foregroundBlur_1646_1361"/>
</filter>
<linearGradient id="paint0_linear_1646_1361" x1="12.9992" y1="57.883" x2="148.38" y2="57.883" gradientUnits="userSpaceOnUse">
<stop stop-color="#2C7DFF"/>
<stop offset="1" stop-color="#78ACFF"/>
</linearGradient>
<radialGradient id="paint1_radial_1646_1361" cx="0" cy="0" r="1" gradientTransform="matrix(5.39102 -9.59236 9.62683 5.37174 144.798 41.711)" gradientUnits="userSpaceOnUse">
<stop stop-color="#2C7DFF"/>
<stop offset="1" stop-color="#78ACFF" stop-opacity="0"/>
</radialGradient>
<linearGradient id="paint2_linear_1646_1361" x1="17.3145" y1="57.5242" x2="150.568" y2="56.521" gradientUnits="userSpaceOnUse">
<stop stop-color="#2C7DFF"/>
<stop offset="1" stop-color="#78ACFF"/>
</linearGradient>
<linearGradient id="paint3_linear_1646_1361" x1="17.042" y1="58.4679" x2="148.513" y2="58.4679" gradientUnits="userSpaceOnUse">
<stop stop-color="#2C7DFF"/>
<stop offset="1" stop-color="#78ACFF"/>
</linearGradient>
<linearGradient id="paint4_linear_1646_1361" x1="20.692" y1="57.8565" x2="147.505" y2="57.8565" gradientUnits="userSpaceOnUse">
<stop stop-color="#2C7DFF"/>
<stop offset="1" stop-color="#78ACFF"/>
</linearGradient>
<linearGradient id="paint5_linear_1646_1361" x1="18.1227" y1="57.5025" x2="149.039" y2="57.5025" gradientUnits="userSpaceOnUse">
<stop stop-color="#2C7DFF"/>
<stop offset="1" stop-color="#78ACFF"/>
</linearGradient>
<linearGradient id="paint6_linear_1646_1361" x1="18.916" y1="47.0178" x2="148.138" y2="47.0178" gradientUnits="userSpaceOnUse">
<stop stop-color="#2C7DFF"/>
<stop offset="1" stop-color="#78ACFF"/>
</linearGradient>
<linearGradient id="paint7_linear_1646_1361" x1="18.1863" y1="57.4175" x2="149.969" y2="57.4175" gradientUnits="userSpaceOnUse">
<stop stop-color="#2C7DFF"/>
<stop offset="1" stop-color="#78ACFF"/>
</linearGradient>
<linearGradient id="paint8_linear_1646_1361" x1="18.9189" y1="33.0647" x2="148.141" y2="33.0647" gradientUnits="userSpaceOnUse">
<stop stop-color="#2C7DFF"/>
<stop offset="1" stop-color="#29B8FF"/>
</linearGradient>
<linearGradient id="paint9_linear_1646_1361" x1="18.9176" y1="61.013" x2="148.14" y2="61.013" gradientUnits="userSpaceOnUse">
<stop stop-color="#2C7DFF"/>
<stop offset="1" stop-color="#78ACFF"/>
</linearGradient>
<linearGradient id="paint10_linear_1646_1361" x1="18.6545" y1="60.9962" x2="147.876" y2="60.9962" gradientUnits="userSpaceOnUse">
<stop stop-color="#2C7DFF"/>
<stop offset="1" stop-color="#78ACFF"/>
</linearGradient>
<linearGradient id="paint11_linear_1646_1361" x1="18.6561" y1="61.013" x2="147.878" y2="61.013" gradientUnits="userSpaceOnUse">
<stop stop-color="#2C7DFF"/>
<stop offset="1" stop-color="#78ACFF"/>
</linearGradient>
<linearGradient id="paint12_linear_1646_1361" x1="18.6544" y1="54.829" x2="147.876" y2="54.829" gradientUnits="userSpaceOnUse">
<stop stop-color="#2C7DFF"/>
<stop offset="1" stop-color="#78ACFF"/>
</linearGradient>
<linearGradient id="paint13_linear_1646_1361" x1="18.6545" y1="54.8283" x2="147.876" y2="54.8283" gradientUnits="userSpaceOnUse">
<stop stop-color="#2C7DFF"/>
<stop offset="1" stop-color="#78ACFF"/>
</linearGradient>
<linearGradient id="paint14_linear_1646_1361" x1="18.8807" y1="61.013" x2="148.101" y2="61.013" gradientUnits="userSpaceOnUse">
<stop stop-color="#2C7DFF"/>
<stop offset="1" stop-color="#78ACFF"/>
</linearGradient>
</defs>
</svg>
